<svg width="25" height="24" viewBox="0 0 25 24" fill="none" xmlns="http://www.w3.org/2000/svg">
<g clip-path="url(#clip0_0_253)">
<path fill-rule="evenodd" clip-rule="evenodd" d="M18.1911 6.78602C17.6342 6.77548 17.0807 6.87607 16.5631 7.08192C16.0455 7.28777 15.5741 7.59474 15.1765 7.98488C14.7789 8.37503 14.4631 8.84052 14.2475 9.35415C14.0319 9.86777 13.9209 10.4192 13.9209 10.9763C13.9209 11.5333 14.0319 12.0848 14.2475 12.5984C14.4631 13.112 14.7789 13.5775 15.1765 13.9677C15.5741 14.3578 16.0455 14.6648 16.5631 14.8706C17.0807 15.0765 17.6342 15.1771 18.1911 15.1665C19.2887 15.1458 20.3344 14.6952 21.1032 13.9116C21.8721 13.128 22.3029 12.0741 22.3029 10.9763C22.3029 9.87848 21.8721 8.82451 21.1032 8.04095C20.3344 7.25738 19.2887 6.80679 18.1911 6.78602ZM11.7141 10.9755C11.7141 9.25791 12.3965 7.61065 13.611 6.39612C14.8255 5.18159 16.4728 4.49927 18.1904 4.49927C19.908 4.49927 21.5553 5.18159 22.7698 6.39612C23.9843 7.61065 24.6666 9.25791 24.6666 10.9755C24.6666 12.6931 23.9843 14.3404 22.7698 15.5549C21.5553 16.7694 19.908 17.4518 18.1904 17.4518C16.4728 17.4518 14.8255 16.7694 13.611 15.5549C12.3965 14.3404 11.7141 12.6931 11.7141 10.9755Z" fill="white"/>
<path fill-rule="evenodd" clip-rule="evenodd" d="M12.8572 12.12H6.00067V9.83252H12.8572V12.12Z" fill="white"/>
<path d="M6.76116 10.9755C6.76898 11.2805 6.71565 11.584 6.60432 11.8681C6.49298 12.1522 6.32591 12.4112 6.11293 12.6297C5.89995 12.8482 5.64538 13.0218 5.36423 13.1404C5.08308 13.259 4.78104 13.32 4.47591 13.32C4.17078 13.32 3.86874 13.259 3.58759 13.1404C3.30644 13.0218 3.05187 12.8482 2.83889 12.6297C2.62592 12.4112 2.45884 12.1522 2.34751 11.8681C2.23617 11.584 2.18285 11.2805 2.19066 10.9755C2.20593 10.3795 2.4534 9.81314 2.8803 9.39703C3.3072 8.98093 3.87977 8.74805 4.47591 8.74805C5.07206 8.74805 5.64462 8.98093 6.07152 9.39703C6.49842 9.81314 6.74589 10.3795 6.76116 10.9755Z" fill="white"/>
<path fill-rule="evenodd" clip-rule="evenodd" d="M4.47666 10.215C4.37384 10.2105 4.27117 10.2268 4.17484 10.263C4.0785 10.2992 3.99049 10.3545 3.91613 10.4256C3.84176 10.4968 3.78257 10.5822 3.74214 10.6769C3.7017 10.7715 3.68086 10.8734 3.68086 10.9763C3.68086 11.0792 3.7017 11.181 3.74214 11.2757C3.78257 11.3703 3.84176 11.4558 3.91613 11.5269C3.99049 11.5981 4.0785 11.6534 4.17484 11.6896C4.27117 11.7258 4.37384 11.7421 4.47666 11.7375C4.67271 11.7288 4.85784 11.6448 4.99349 11.503C5.12914 11.3612 5.20486 11.1725 5.20486 10.9763C5.20486 10.78 5.12914 10.5914 4.99349 10.4495C4.85784 10.3077 4.67271 10.2237 4.47666 10.215ZM0.666656 10.9755C0.666656 10.4752 0.765205 9.97975 0.956675 9.5175C1.14815 9.05525 1.42879 8.63524 1.78258 8.28145C2.13637 7.92766 2.55638 7.64702 3.01863 7.45555C3.48088 7.26408 3.97632 7.16553 4.47666 7.16553C4.97699 7.16553 5.47243 7.26408 5.93468 7.45555C6.39693 7.64702 6.81694 7.92766 7.17073 8.28145C7.52452 8.63524 7.80517 9.05525 7.99664 9.5175C8.18811 9.97975 8.28666 10.4752 8.28666 10.9755C8.28666 11.986 7.88525 12.9551 7.17073 13.6696C6.45622 14.3841 5.48713 14.7855 4.47666 14.7855C3.46618 14.7855 2.49709 14.3841 1.78258 13.6696C1.06807 12.9551 0.666657 11.986 0.666656 10.9755Z" fill="white"/>
</g>
<defs>
<clipPath id="clip0_0_253">
<rect width="24" height="24" fill="white" transform="translate(0.666656)"/>
</clipPath>
</defs>
</svg>
