<svg width="40" height="40" viewBox="0 0 40 40" fill="none" xmlns="http://www.w3.org/2000/svg">
<path d="M10 11.6666L18.3333 11.6666C18.7754 11.6666 19.1993 11.8422 19.5119 12.1548C19.8244 12.4673 20 12.8913 20 13.3333C20 13.7753 19.8244 14.1992 19.5119 14.5118C19.1993 14.8244 18.7754 15 18.3333 15L10 15C9.55798 15 9.13406 14.8244 8.8215 14.5118C8.50894 14.1992 8.33334 13.7753 8.33334 13.3333C8.33334 12.8913 8.50894 12.4673 8.8215 12.1548C9.13406 11.8422 9.55798 11.6666 10 11.6666ZM21.6667 25L30 25C30.442 25 30.866 25.1756 31.1785 25.4881C31.4911 25.8007 31.6667 26.2246 31.6667 26.6666C31.6667 27.1087 31.4911 27.5326 31.1785 27.8451C30.866 28.1577 30.442 28.3333 30 28.3333H21.6667C21.2247 28.3333 20.8007 28.1577 20.4882 27.8451C20.1756 27.5326 20 27.1087 20 26.6666C20 26.2246 20.1756 25.8007 20.4882 25.4881C20.8007 25.1756 21.2247 25 21.6667 25ZM10 18.3333L30 18.3333C30.442 18.3333 30.866 18.5089 31.1785 18.8214C31.4911 19.134 31.6667 19.5579 31.6667 20C31.6667 20.442 31.4911 20.8659 31.1785 21.1785C30.866 21.491 30.442 21.6666 30 21.6666L10 21.6666C9.55798 21.6666 9.13406 21.491 8.8215 21.1785C8.50894 20.8659 8.33334 20.442 8.33334 20C8.33334 19.5579 8.50894 19.134 8.8215 18.8214C9.13406 18.5089 9.55798 18.3333 10 18.3333Z" fill="black"/>
</svg>
